<?xml version="1.0" encoding="UTF-8" standalone="no"?>
<!DOCTYPE svg PUBLIC "-//W3C//DTD SVG 20010904//EN"
              "http://www.w3.org/TR/2001/REC-SVG-20010904/DTD/svg10.dtd">

<svg xmlns="http://www.w3.org/2000/svg"
     width="7.11111in" height="7.11111in"
     viewBox="0 0 512 512">
  <path id="Selection"
        fill="none" stroke="black" stroke-width="1"
        d="M 0.00,470.00
           C 0.02,457.69 7.63,440.11 11.67,428.00
             11.67,428.00 39.00,347.00 39.00,347.00
             39.00,347.00 116.00,118.00 116.00,118.00
             116.00,118.00 146.67,27.00 146.67,27.00
             146.67,27.00 152.67,9.00 152.67,9.00
             153.45,6.69 154.63,2.43 156.65,0.99
             158.39,-0.25 161.90,0.00 164.00,0.00
             164.00,0.00 512.00,0.00 512.00,0.00
             512.00,0.00 512.00,512.00 512.00,512.00
             512.00,512.00 0.00,512.00 0.00,512.00
             0.00,512.00 0.00,470.00 0.00,470.00 Z
           M 164.00,11.00
           C 164.00,11.00 159.00,27.00 159.00,27.00
             159.00,27.00 353.00,27.00 353.00,27.00
             353.00,27.00 348.00,11.00 348.00,11.00
             348.00,11.00 164.00,11.00 164.00,11.00 Z
           M 168.00,48.00
           C 162.80,53.20 146.23,68.81 143.41,74.00
             141.95,76.70 141.47,79.02 141.00,82.00
             141.00,82.00 164.00,60.00 164.00,60.00
             164.00,60.00 185.00,38.00 185.00,38.00
             175.71,38.12 174.36,41.64 168.00,48.00 Z
           M 206.00,38.00
           C 203.87,38.00 200.28,37.77 198.51,39.02
             196.31,40.58 192.48,53.67 191.19,57.00
             185.92,70.59 177.42,85.74 166.99,95.96
             160.99,101.84 153.96,106.87 146.00,109.66
             142.51,110.88 131.71,112.71 130.08,114.56
             128.41,116.46 123.22,133.35 122.00,137.00
             122.00,137.00 104.67,188.00 104.67,188.00
             104.67,188.00 45.33,364.00 45.33,364.00
             45.33,364.00 19.33,442.00 19.33,442.00
             16.08,451.76 8.93,465.96 11.94,476.00
             12.89,479.16 14.39,481.48 17.04,483.49
             20.71,486.27 39.32,491.67 45.00,493.69
             51.86,496.13 65.14,502.24 72.00,500.20
             84.82,496.40 89.84,482.82 95.25,472.00
             95.25,472.00 133.75,395.00 133.75,395.00
             133.75,395.00 182.75,298.00 182.75,298.00
             182.75,298.00 211.75,241.00 211.75,241.00
             211.75,241.00 223.32,217.00 223.32,217.00
             223.32,217.00 244.25,176.00 244.25,176.00
             247.32,169.85 253.26,159.10 255.00,153.00
             255.00,153.00 257.00,153.00 257.00,153.00
             258.82,159.38 267.32,175.14 270.75,182.00
             270.75,182.00 300.03,240.00 300.03,240.00
             300.03,240.00 390.75,420.00 390.75,420.00
             390.75,420.00 420.52,479.00 420.52,479.00
             425.71,488.92 430.03,499.08 443.00,500.64
             447.36,501.16 456.62,497.55 461.00,495.95
             461.00,495.95 483.00,488.33 483.00,488.33
             486.37,487.21 492.25,485.59 494.90,483.49
             498.50,480.65 500.64,475.52 500.89,471.00
             501.25,464.59 492.81,442.43 490.33,435.00
             490.33,435.00 464.05,357.00 464.05,357.00
             464.05,357.00 444.67,299.00 444.67,299.00
             444.67,299.00 403.86,178.00 403.86,178.00
             403.86,178.00 390.00,137.00 390.00,137.00
             390.00,137.00 382.89,116.12 382.89,116.12
             380.55,111.45 375.59,112.09 371.00,110.84
             364.83,109.16 357.98,105.52 353.00,101.54
             334.98,87.12 320.55,60.57 316.00,38.00
             316.00,38.00 286.00,38.00 286.00,38.00
             293.34,48.26 297.30,48.41 305.69,64.00
             315.65,82.49 316.13,105.99 311.11,126.00
             311.11,126.00 303.00,149.00 303.00,149.00
             303.00,149.00 292.00,145.00 292.00,145.00
             306.25,114.76 309.28,81.91 286.13,55.00
             279.92,47.78 270.03,38.17 260.00,38.00
             260.00,38.00 249.00,38.00 249.00,38.00
             247.07,38.00 243.92,37.88 242.17,38.60
             237.53,40.51 232.77,50.24 231.68,55.00
             228.21,70.11 234.82,87.17 235.00,102.00
             235.10,111.29 235.29,116.87 232.56,126.00
             232.56,126.00 227.00,140.00 227.00,140.00
             224.01,139.05 219.50,137.37 218.65,133.91
             218.15,131.84 219.95,128.08 220.64,126.00
             222.00,121.93 223.62,115.24 223.91,111.00
             223.91,111.00 219.04,63.00 219.04,63.00
             219.46,53.11 222.50,46.51 227.00,38.00
             227.00,38.00 206.00,38.00 206.00,38.00 Z
           M 328.00,38.00
           C 328.86,43.57 331.02,48.77 333.06,54.00
             340.12,72.10 355.62,98.06 377.00,100.00
             377.00,100.00 357.00,38.00 357.00,38.00
             357.00,38.00 328.00,38.00 328.00,38.00 Z
           M 55.00,86.00
           C 55.00,86.00 53.00,90.00 53.00,90.00
             56.71,94.17 54.38,96.41 49.00,93.00
             49.00,93.00 46.00,95.00 46.00,95.00
             47.25,89.14 49.14,87.25 55.00,86.00 Z" />
</svg>
