<?xml version="1.0" encoding="UTF-8" standalone="no"?>
<!DOCTYPE svg PUBLIC "-//W3C//DTD SVG 20010904//EN"
              "http://www.w3.org/TR/2001/REC-SVG-20010904/DTD/svg10.dtd">

<svg xmlns="http://www.w3.org/2000/svg"
     width="7.11111in" height="7.11111in"
     viewBox="0 0 512 512">
  <path id="PantsStroke"
        fill="#000000" stroke="black" stroke-width="1"
        d="M 242.25,206.00
           C 242.25,206.00 215.27,259.00 215.27,259.00
             215.27,259.00 125.25,438.00 125.25,438.00
             125.25,438.00 107.11,474.00 107.11,474.00
             98.11,492.49 90.38,512.58 66.00,511.99
             58.66,511.81 47.32,506.78 40.00,504.33
             40.00,504.33 24.00,499.00 24.00,499.00
             12.02,495.01 4.33,492.85 0.76,479.00
             -0.16,475.41 -0.04,471.68 0.00,468.00
             0.11,458.93 7.83,439.52 11.00,430.00
             11.00,430.00 36.00,356.00 36.00,356.00
             36.00,356.00 119.67,107.00 119.67,107.00
             119.67,107.00 147.33,25.00 147.33,25.00
             147.33,25.00 153.00,8.00 153.00,8.00
             153.71,5.87 154.62,2.35 156.51,1.02
             158.29,-0.23 161.86,0.00 164.00,0.00
             164.00,0.00 348.00,0.00 348.00,0.00
             350.14,0.00 353.71,-0.23 355.49,1.02
             357.49,2.42 358.57,6.71 359.33,9.00
             359.33,9.00 366.00,29.00 366.00,29.00
             366.00,29.00 397.67,123.00 397.67,123.00
             397.67,123.00 478.00,362.00 478.00,362.00
             478.00,362.00 501.67,432.00 501.67,432.00
             504.75,441.26 511.89,459.06 512.00,468.00
             512.05,472.30 512.20,475.82 510.96,480.00
             507.03,493.23 499.65,495.12 488.00,499.00
             488.00,499.00 471.00,504.67 471.00,504.67
             462.09,507.64 452.43,512.21 443.00,511.99
             427.42,511.61 418.51,500.68 411.90,488.00
             411.90,488.00 386.25,437.00 386.25,437.00
             386.25,437.00 298.75,263.00 298.75,263.00
             298.75,263.00 270.75,208.00 270.75,208.00
             267.32,201.14 258.82,185.38 257.00,179.00
             257.00,179.00 255.00,179.00 255.00,179.00
             253.20,185.31 245.57,199.36 242.25,206.00 Z
           M 164.00,11.00
           C 164.00,11.00 159.00,27.00 159.00,27.00
             159.00,27.00 353.00,27.00 353.00,27.00
             353.00,27.00 348.00,11.00 348.00,11.00
             348.00,11.00 164.00,11.00 164.00,11.00 Z
           M 155.00,38.00
           C 155.00,38.00 135.00,100.00 135.00,100.00
             156.32,98.95 170.50,75.31 178.30,58.00
             181.15,51.69 183.94,44.87 185.00,38.00
             185.00,38.00 155.00,38.00 155.00,38.00 Z
           M 206.00,38.00
           C 203.86,38.00 200.29,37.77 198.51,39.02
             196.55,40.40 195.78,43.81 195.14,46.00
             195.14,46.00 190.40,59.00 190.40,59.00
             183.95,74.80 173.93,91.66 160.00,101.84
             154.52,105.84 148.52,109.02 142.00,110.96
             138.80,111.91 132.06,112.31 130.08,114.56
             128.41,116.46 123.22,133.35 122.00,137.00
             122.00,137.00 104.33,189.00 104.33,189.00
             104.33,189.00 71.67,286.00 71.67,286.00
             71.67,286.00 43.66,370.00 43.66,370.00
             43.66,370.00 20.67,438.00 20.67,438.00
             18.47,444.58 11.08,464.39 11.08,470.00
             11.08,473.88 12.89,479.70 15.64,482.50
             18.03,484.94 23.71,486.57 27.00,487.67
             27.00,487.67 51.00,495.67 51.00,495.67
             55.89,497.31 64.16,501.25 69.00,500.63
             83.18,498.83 88.07,484.83 93.78,474.00
             93.78,474.00 133.75,395.00 133.75,395.00
             133.75,395.00 182.75,298.00 182.75,298.00
             182.75,298.00 232.25,200.00 232.25,200.00
             232.25,200.00 255.00,153.00 255.00,153.00
             255.00,153.00 257.00,153.00 257.00,153.00
             257.00,153.00 277.75,196.00 277.75,196.00
             277.75,196.00 322.75,285.00 322.75,285.00
             322.75,285.00 389.75,418.00 389.75,418.00
             389.75,418.00 408.89,456.00 408.89,456.00
             408.89,456.00 426.47,489.91 426.47,489.91
             429.91,495.07 437.60,500.61 444.00,500.72
             447.20,500.78 452.73,498.43 456.00,497.33
             456.00,497.33 478.00,490.00 478.00,490.00
             488.07,486.64 497.89,486.05 500.48,474.00
             502.19,466.08 495.98,451.94 493.33,444.00
             493.33,444.00 471.34,379.00 471.34,379.00
             471.34,379.00 442.33,292.00 442.33,292.00
             442.33,292.00 412.51,204.00 412.51,204.00
             412.51,204.00 392.33,144.00 392.33,144.00
             392.33,144.00 382.44,115.25 382.44,115.25
             380.17,111.64 374.04,111.77 370.00,110.56
             364.12,108.81 356.86,104.69 352.00,100.96
             334.32,87.38 320.86,59.51 316.00,38.00
             316.00,38.00 286.00,38.00 286.00,38.00
             291.75,46.04 295.49,47.00 302.94,59.00
             313.81,76.53 316.43,97.95 312.92,118.00
             311.74,124.72 308.77,134.72 306.14,141.00
             305.31,142.97 303.88,146.83 301.73,147.59
             299.74,148.29 294.38,145.68 292.00,145.00
             304.30,116.42 309.83,87.21 290.25,60.00
             285.14,52.89 273.49,41.20 265.00,38.65
             261.76,37.67 251.90,37.97 248.00,38.00
             246.22,38.01 243.74,37.94 242.09,38.60
             236.54,40.80 231.87,52.35 231.09,58.00
             231.09,58.00 231.09,70.00 231.09,70.00
             231.20,87.03 238.69,102.91 233.52,123.00
             232.50,126.98 229.21,139.44 223.96,138.47
             221.91,138.10 218.38,136.01 217.99,133.79
             217.62,131.75 220.49,126.31 221.30,124.00
             223.26,118.46 224.12,111.86 223.99,106.00
             223.99,106.00 219.01,67.00 219.01,67.00
             218.66,51.47 222.67,49.69 226.00,38.00
             226.00,38.00 206.00,38.00 206.00,38.00 Z
           M 328.00,38.00
           C 333.39,61.62 350.70,95.94 377.00,100.00
             377.00,100.00 357.00,38.00 357.00,38.00
             357.00,38.00 328.00,38.00 328.00,38.00 Z
           M 134.00,100.00
           C 134.00,100.00 135.00,101.00 135.00,101.00
             135.00,101.00 135.00,100.00 135.00,100.00
             135.00,100.00 134.00,100.00 134.00,100.00 Z" />
  <path id="InsidePants"
        fill="none" stroke="black" stroke-width="1"
        d="M 348.00,11.00
           C 348.00,11.00 353.00,27.00 353.00,27.00
             353.00,27.00 159.00,27.00 159.00,27.00
             159.00,27.00 164.00,11.00 164.00,11.00
             164.00,11.00 348.00,11.00 348.00,11.00 Z
           M 185.00,38.00
           C 184.13,44.12 182.06,49.29 179.80,55.00
             172.27,73.98 157.36,97.98 135.00,100.00
             135.00,100.00 155.00,38.00 155.00,38.00
             155.00,38.00 185.00,38.00 185.00,38.00 Z
           M 244.25,176.00
           C 244.25,176.00 223.32,217.00 223.32,217.00
             223.32,217.00 211.75,241.00 211.75,241.00
             211.75,241.00 182.75,298.00 182.75,298.00
             182.75,298.00 133.75,395.00 133.75,395.00
             133.75,395.00 95.25,472.00 95.25,472.00
             89.84,482.82 84.82,496.40 72.00,500.20
             65.14,502.24 51.86,496.13 45.00,493.69
             39.32,491.67 20.71,486.27 17.04,483.49
             14.39,481.48 12.89,479.16 11.94,476.00
             8.93,465.96 16.08,451.76 19.33,442.00
             19.33,442.00 45.33,364.00 45.33,364.00
             45.33,364.00 104.67,188.00 104.67,188.00
             104.67,188.00 122.00,137.00 122.00,137.00
             123.22,133.35 128.41,116.46 130.08,114.56
             131.71,112.71 142.51,110.88 146.00,109.66
             153.96,106.87 160.99,101.84 166.99,95.96
             177.80,85.37 186.74,69.18 191.95,55.00
             197.70,39.32 195.68,38.06 205.00,38.00
             205.00,38.00 227.00,38.00 227.00,38.00
             222.50,46.51 219.46,53.11 219.04,63.00
             219.04,63.00 223.91,111.00 223.91,111.00
             223.62,115.24 222.00,121.93 220.64,126.00
             219.95,128.08 218.15,131.84 218.65,133.91
             219.50,137.37 224.01,139.05 227.00,140.00
             227.00,140.00 232.56,126.00 232.56,126.00
             235.29,116.87 235.10,111.29 235.00,102.00
             235.00,102.00 231.00,62.00 231.00,62.00
             231.09,54.90 235.16,41.49 242.17,38.60
             243.92,37.88 247.07,38.00 249.00,38.00
             249.00,38.00 260.00,38.00 260.00,38.00
             270.03,38.17 279.92,47.78 286.13,55.00
             309.28,81.91 306.25,114.76 292.00,145.00
             292.00,145.00 303.00,149.00 303.00,149.00
             303.00,149.00 311.11,126.00 311.11,126.00
             316.13,105.99 315.65,82.49 305.69,64.00
             297.30,48.41 293.34,48.26 286.00,38.00
             286.00,38.00 316.00,38.00 316.00,38.00
             320.55,60.57 334.98,87.12 353.00,101.54
             357.98,105.52 364.83,109.16 371.00,110.84
             375.59,112.09 380.55,111.45 382.89,116.12
             382.89,116.12 390.00,137.00 390.00,137.00
             390.00,137.00 403.86,178.00 403.86,178.00
             403.86,178.00 444.67,299.00 444.67,299.00
             444.67,299.00 464.05,357.00 464.05,357.00
             464.05,357.00 490.33,435.00 490.33,435.00
             492.81,442.43 501.25,464.59 500.89,471.00
             500.64,475.52 498.50,480.65 494.90,483.49
             492.25,485.59 486.37,487.21 483.00,488.33
             483.00,488.33 461.00,495.95 461.00,495.95
             456.62,497.55 447.36,501.16 443.00,500.64
             430.03,499.08 425.71,488.92 420.52,479.00
             420.52,479.00 390.75,420.00 390.75,420.00
             390.75,420.00 300.03,240.00 300.03,240.00
             300.03,240.00 270.75,182.00 270.75,182.00
             267.32,175.14 258.82,159.38 257.00,153.00
             257.00,153.00 255.00,153.00 255.00,153.00
             253.26,159.10 247.32,169.85 244.25,176.00 Z
           M 357.00,38.00
           C 357.00,38.00 377.00,100.00 377.00,100.00
             355.62,98.06 340.12,72.10 333.06,54.00
             331.02,48.77 328.86,43.57 328.00,38.00
             328.00,38.00 357.00,38.00 357.00,38.00 Z" />
</svg>
