<?xml version="1.0" encoding="UTF-8" standalone="no"?>
<!DOCTYPE svg PUBLIC "-//W3C//DTD SVG 20010904//EN"
              "http://www.w3.org/TR/2001/REC-SVG-20010904/DTD/svg10.dtd">

<svg xmlns="http://www.w3.org/2000/svg"
     width="9.9in" height="5.53333in"
     viewBox="0 0 891 498">
  <path id="ShoeOutline"
        fill="none" stroke="black" stroke-width="10"
        d="M 501.00,61.00
           C 501.00,61.00 537.00,38.58 537.00,38.58
             545.58,33.76 552.65,29.54 562.00,34.88
             569.27,39.03 576.40,47.30 581.37,54.00
             587.66,62.47 595.54,75.90 598.56,86.00
             602.22,98.25 602.23,111.38 603.09,124.00
             603.09,124.00 603.91,131.00 603.91,131.00
             603.91,131.00 603.01,143.00 603.01,143.00
             602.95,145.78 602.49,151.45 605.31,153.01
             608.32,154.68 614.30,150.31 617.00,148.89
             617.00,148.89 646.00,135.58 646.00,135.58
             669.10,125.50 710.49,105.79 733.00,98.88
             733.00,98.88 757.00,93.40 757.00,93.40
             765.59,91.68 778.43,89.10 787.00,89.00
             792.83,88.94 799.66,88.39 805.00,90.92
             809.62,93.10 811.66,96.18 816.00,98.59
             819.57,100.57 823.66,101.24 826.61,104.27
             830.12,107.88 837.77,124.62 839.99,130.00
             849.14,152.19 855.71,181.01 857.03,205.00
             857.03,205.00 859.05,230.00 859.05,230.00
             859.05,230.00 859.05,258.00 859.05,258.00
             859.05,258.00 859.05,267.00 859.05,267.00
             859.05,267.00 859.05,273.00 859.05,273.00
             859.05,273.00 859.05,297.00 859.05,297.00
             859.05,297.00 858.00,314.00 858.00,314.00
             857.99,317.74 858.42,324.35 856.10,327.39
             853.70,330.53 841.07,336.64 837.00,338.78
             819.38,348.05 801.25,355.64 782.00,360.85
             759.03,367.06 703.61,376.29 678.00,380.59
             678.00,380.59 650.00,385.28 650.00,385.28
             650.00,385.28 602.00,398.72 602.00,398.72
             602.00,398.72 558.00,413.45 558.00,413.45
             558.00,413.45 508.00,433.66 508.00,433.66
             481.44,442.87 451.67,450.58 424.00,455.58
             424.00,455.58 394.00,460.44 394.00,460.44
             394.00,460.44 386.17,460.44 386.17,460.44
             386.17,460.44 381.83,461.77 381.83,461.77
             381.83,461.77 353.00,464.09 353.00,464.09
             353.00,464.09 343.00,465.00 343.00,465.00
             323.45,465.22 303.43,465.68 284.00,463.83
             254.62,461.03 220.21,454.44 191.00,448.80
             163.38,443.47 127.47,435.96 101.00,427.33
             82.62,421.34 70.40,417.41 53.00,408.22
             47.01,405.06 37.22,398.95 33.98,393.00
             31.81,389.00 31.95,382.50 32.00,378.00
             32.21,360.43 37.38,339.45 49.32,326.09
             61.61,312.35 78.71,306.15 95.00,298.69
             95.00,298.69 135.00,280.31 135.00,280.31
             135.00,280.31 153.00,272.63 153.00,272.63
             153.00,272.63 169.00,264.25 169.00,264.25
             169.00,264.25 191.00,253.25 191.00,253.25
             193.14,252.17 200.32,248.63 201.71,247.25
             206.76,242.22 194.32,238.08 200.43,231.39
             202.95,228.64 212.05,225.16 215.57,227.03
             217.60,228.11 223.03,234.85 225.00,237.00
             230.34,229.05 233.49,230.59 235.72,227.59
             238.59,223.59 234.09,218.96 235.72,214.00
             237.16,209.95 246.17,203.23 250.30,206.03
             252.58,207.58 253.60,213.41 254.00,216.00
             259.62,213.75 269.39,206.35 275.00,202.67
             276.63,201.60 282.27,198.39 283.10,197.16
             284.96,194.42 281.37,189.46 281.75,186.04
             282.41,180.09 292.99,176.18 298.00,175.00
             298.00,175.00 300.00,186.00 300.00,186.00
             300.00,186.00 318.00,173.88 318.00,173.88
             320.06,172.45 323.84,170.25 324.77,167.90
             326.35,163.89 321.26,160.52 325.58,155.21
             326.96,153.53 329.00,152.28 331.00,151.49
             337.39,148.95 338.53,152.64 340.00,158.00
             342.62,156.65 355.07,148.48 356.77,146.62
             359.70,142.80 355.58,140.29 356.77,136.04
             358.32,131.82 366.60,126.69 370.96,128.32
             373.60,129.31 374.75,131.70 376.00,134.00
             376.00,134.00 387.00,124.59 387.00,124.59
             388.46,123.55 393.31,120.54 394.00,119.22
             395.39,116.55 391.65,114.32 392.49,110.00
             393.65,103.96 403.57,98.59 409.00,97.00
             409.00,97.00 414.00,106.00 414.00,106.00
             420.45,99.13 422.54,97.56 430.00,91.88
             430.00,91.88 439.58,84.63 439.58,84.63
             442.11,81.52 440.01,79.33 440.33,76.00
             440.70,72.07 444.35,68.06 448.00,66.83
             450.88,65.72 454.03,66.71 457.00,66.83
             462.11,67.26 464.84,66.39 470.00,68.25
             476.27,70.50 477.43,73.38 484.00,75.00
             485.30,69.52 496.28,64.16 501.00,61.00 Z" />
      <path id="ShoeToeThing"
        fill="#000000" stroke="black" stroke-width="1"
        d="M 40.00,342.00
           C 41.53,347.29 50.36,352.68 55.00,355.58
             70.17,365.05 87.54,371.64 105.00,375.58
             114.41,377.69 130.20,377.57 128.89,391.00
             127.68,403.35 110.84,398.37 103.00,396.80
             78.78,391.96 51.54,383.98 33.00,367.00
             33.00,367.00 32.00,370.00 32.00,370.00
             30.48,360.60 33.70,350.29 38.00,342.00
             38.00,342.00 40.00,342.00 40.00,342.00 Z" />
      <path id="ShoeAccentLines"
        fill="none" stroke="black" stroke-width="1"
        d="M 467.00,68.00
           C 467.00,68.00 461.00,69.00 461.00,69.00
             462.51,71.22 464.51,74.68 467.09,75.68
             469.39,76.57 473.43,75.26 475.99,74.97
             475.99,74.97 492.00,74.00 492.00,74.00
             510.39,73.97 526.95,80.61 541.00,92.44
             541.00,92.44 557.28,108.07 557.28,108.07
             557.28,108.07 573.00,113.45 573.00,113.45
             579.86,116.26 588.45,122.27 594.00,127.17
             599.33,131.87 602.86,133.56 603.00,141.00
             603.00,141.00 603.00,153.00 603.00,153.00
             588.30,142.80 588.00,137.52 568.00,126.00
             584.39,164.66 580.58,214.14 570.12,254.00
             570.12,254.00 560.66,286.00 560.66,286.00
             560.66,286.00 552.43,309.00 552.43,309.00
             547.94,323.67 546.64,333.31 544.00,348.00
             544.00,348.00 570.00,340.42 570.00,340.42
             570.00,340.42 615.00,326.98 615.00,326.98
             615.00,326.98 660.00,313.88 660.00,313.88
             660.00,313.88 734.00,299.42 734.00,299.42
             752.07,296.17 769.31,293.55 787.00,288.28
             787.00,288.28 829.00,273.72 829.00,273.72
             829.00,273.72 858.16,261.00 858.16,261.00
             858.29,262.33 858.78,263.22 858.16,264.67
             857.11,268.40 846.59,272.13 843.00,273.77
             825.07,281.95 807.82,287.64 789.00,293.28
             770.06,298.96 750.45,301.87 731.00,305.25
             705.37,309.70 679.16,314.27 654.00,320.88
             654.00,320.88 614.00,332.98 614.00,332.98
             614.00,332.98 586.00,341.34 586.00,341.34
             586.00,341.34 544.00,353.00 544.00,353.00
             543.82,375.20 543.59,388.23 555.80,408.00
             561.06,416.52 565.36,420.96 575.00,424.79
             580.66,427.04 592.77,428.07 599.00,428.00
             599.00,428.00 635.00,421.28 635.00,421.28
             635.00,421.28 671.00,415.28 671.00,415.28
             671.00,415.28 686.00,413.79 686.00,413.79
             686.00,413.79 693.00,412.17 693.00,412.17
             693.00,412.17 719.00,410.00 719.00,410.00
             719.00,410.00 741.00,409.00 741.00,409.00
             741.00,409.00 778.00,409.00 778.00,409.00
             778.00,409.00 798.00,410.70 798.00,410.70
             805.49,413.22 802.03,415.98 814.00,416.00
             814.00,416.00 861.00,416.00 861.00,416.00
             867.02,416.09 871.90,417.64 870.76,424.98
             869.75,431.47 864.08,430.99 859.00,431.00
             859.00,431.00 812.00,431.00 812.00,431.00
             801.75,431.19 806.80,434.97 794.00,435.00
             794.00,435.00 757.00,435.00 757.00,435.00
             757.00,435.00 741.00,436.00 741.00,436.00
             741.00,436.00 726.00,436.91 726.00,436.91
             726.00,436.91 662.00,443.15 662.00,443.15
             639.83,445.84 617.31,452.48 595.00,452.99
             590.13,453.10 588.50,452.60 584.00,452.17
             576.78,451.47 573.34,451.59 566.01,449.28
             561.48,447.84 561.61,447.21 557.91,445.16
             546.57,438.90 543.97,438.09 534.72,428.03
             532.09,425.17 529.62,423.28 527.47,419.96
             517.71,404.93 514.01,379.71 514.00,362.00
             514.00,362.00 473.00,370.58 473.00,370.58
             443.39,375.92 413.99,380.04 384.00,382.09
             384.00,382.09 374.00,383.00 374.00,383.00
             374.00,383.00 353.00,384.00 353.00,384.00
             353.00,384.00 320.00,384.00 320.00,384.00
             320.00,384.00 302.00,383.00 302.00,383.00
             302.00,383.00 256.00,378.72 256.00,378.72
             256.00,378.72 203.00,370.39 203.00,370.39
             203.00,370.39 169.00,364.00 169.00,364.00
             169.40,368.86 170.39,374.65 172.67,379.00
             182.38,397.51 210.39,400.93 229.00,403.15
             266.10,407.59 313.78,406.73 348.00,421.86
             364.17,429.01 382.89,442.13 388.00,460.00
             386.28,459.86 384.89,459.93 383.33,458.98
             383.33,458.98 370.99,444.00 370.99,444.00
             361.31,434.13 351.87,428.77 339.00,424.05
             307.76,412.60 271.85,412.35 239.00,409.17
             224.57,407.77 209.91,406.82 196.00,402.33
             183.82,398.40 172.88,393.45 167.35,381.00
             164.20,373.92 165.09,366.32 162.41,363.58
             160.84,361.98 157.18,361.39 155.00,360.88
             155.00,360.88 138.00,357.12 138.00,357.12
             118.52,352.50 87.71,345.74 70.00,338.13
             65.41,336.15 52.11,329.36 54.25,323.04
             54.89,321.15 56.54,320.15 58.00,319.00
             60.34,330.01 74.44,334.46 84.00,337.65
             84.00,337.65 133.00,350.58 133.00,350.58
             133.00,350.58 165.00,358.00 165.00,358.00
             165.00,335.28 165.78,308.73 144.00,294.70
             133.30,287.80 127.16,289.52 121.00,287.00
             124.58,286.04 128.30,284.16 132.00,284.39
             136.44,284.67 143.25,287.34 147.00,289.71
             171.18,304.95 170.00,334.02 170.00,359.00
             170.00,359.00 207.00,365.75 207.00,365.75
             209.97,366.25 218.24,368.40 220.57,366.94
             223.47,365.12 223.95,352.56 224.00,349.00
             224.34,319.95 217.93,291.55 188.00,279.45
             180.39,276.38 173.06,275.24 165.00,274.28
             160.75,273.78 156.97,274.57 153.00,273.00
             154.71,272.16 157.26,270.68 159.00,270.20
             162.42,269.26 172.26,270.30 176.00,270.92
             192.71,273.68 208.28,281.09 217.53,296.00
             226.30,310.13 224.96,317.22 229.00,331.00
             235.92,316.88 247.20,308.63 256.00,297.00
             245.33,291.51 226.75,274.75 218.00,266.00
             212.33,260.33 206.07,254.98 202.00,248.00
             203.84,247.30 204.90,246.54 207.00,247.24
             209.48,248.08 220.88,261.01 224.00,263.91
             237.39,276.39 251.48,288.31 267.00,298.05
             271.42,300.83 282.38,307.65 287.00,308.99
             293.22,310.80 299.92,304.40 298.08,300.80
             297.23,299.16 292.63,295.69 291.00,294.42
             291.00,294.42 275.00,281.80 275.00,281.80
             275.00,281.80 255.00,265.58 255.00,265.58
             246.48,258.38 231.14,245.58 225.00,237.00
             225.00,237.00 229.00,234.00 229.00,234.00
             229.00,234.00 238.00,243.00 238.00,243.00
             236.22,236.39 232.39,232.60 238.00,227.00
             241.23,234.32 244.30,244.74 248.79,251.00
             253.30,257.29 272.07,272.33 279.00,278.00
             278.73,271.61 274.07,263.80 271.26,258.00
             267.04,249.29 256.35,225.64 255.00,217.00
             255.00,217.00 259.00,215.00 259.00,215.00
             259.00,215.00 266.00,232.00 266.00,232.00
             276.22,226.35 279.28,227.59 290.00,230.00
             290.00,230.00 283.33,209.00 283.33,209.00
             281.69,204.05 279.71,201.01 285.00,198.00
             285.00,198.00 292.66,220.00 292.66,220.00
             292.66,220.00 296.70,230.79 296.70,230.79
             296.70,230.79 307.00,237.25 307.00,237.25
             307.00,237.25 323.00,246.00 323.00,246.00
             323.00,246.00 305.00,202.00 305.00,202.00
             302.66,195.13 298.66,189.44 305.00,184.00
             305.00,184.00 310.00,202.00 310.00,202.00
             323.37,202.00 321.67,201.49 335.00,204.00
             335.00,204.00 322.00,171.00 322.00,171.00
             322.00,171.00 327.00,169.00 327.00,169.00
             327.00,169.00 336.32,193.00 336.32,193.00
             336.32,193.00 341.51,204.39 341.51,204.39
             341.51,204.39 367.00,220.00 367.00,220.00
             367.00,220.00 346.58,173.00 346.58,173.00
             344.24,167.60 337.99,159.59 346.00,157.00
             346.00,157.00 352.00,172.00 352.00,172.00
             352.00,172.00 366.00,169.00 366.00,169.00
             366.00,169.00 357.23,150.04 357.23,150.04
             357.23,150.04 360.00,146.00 360.00,146.00
             360.00,146.00 372.39,167.49 372.39,167.49
             372.39,167.49 383.00,171.35 383.00,171.35
             383.00,171.35 400.00,179.00 400.00,179.00
             397.28,171.22 387.69,153.75 383.28,146.00
             379.93,140.11 375.43,136.27 381.00,131.00
             383.09,134.75 389.92,147.22 393.10,148.98
             393.10,148.98 415.00,151.00 415.00,151.00
             409.74,144.92 395.28,127.75 393.00,121.00
             393.00,121.00 397.00,119.00 397.00,119.00
             397.00,119.00 414.40,141.00 414.40,141.00
             414.40,141.00 423.17,151.42 423.17,151.42
             423.17,151.42 435.00,155.42 435.00,155.42
             435.00,155.42 449.00,161.00 449.00,161.00
             449.00,161.00 423.33,121.00 423.33,121.00
             419.37,115.02 414.03,110.28 417.00,103.00
             417.00,103.00 419.00,103.00 419.00,103.00
             420.80,106.69 426.87,117.09 430.18,118.98
             432.35,120.21 437.24,120.05 440.00,120.42
             440.00,120.42 460.00,124.00 460.00,124.00
             453.88,116.06 448.25,105.98 443.75,97.00
             440.56,90.61 437.51,87.90 443.00,82.00
             444.73,88.08 447.70,92.55 450.70,98.00
             454.91,105.67 463.52,121.42 470.04,126.59
             472.09,128.21 481.57,132.93 484.00,132.78
             487.50,132.57 492.00,128.73 490.89,124.99
             490.89,124.99 481.33,110.00 481.33,110.00
             475.45,101.17 456.94,74.95 454.00,67.00
             454.00,67.00 467.00,68.00 467.00,68.00 Z
           M 494.00,93.10
           C 508.43,93.74 519.21,100.99 528.99,111.00
             550.73,133.26 557.35,160.86 557.00,191.00
             557.00,191.00 556.17,200.00 556.17,200.00
             553.33,229.28 546.45,257.04 537.33,285.00
             537.33,285.00 523.42,329.00 523.42,329.00
             523.42,329.00 519.83,355.00 519.83,355.00
             517.18,382.73 524.23,417.50 548.00,434.84
             575.02,454.55 606.00,447.14 636.00,442.08
             666.25,436.98 696.47,434.00 727.00,431.91
             727.00,431.91 737.00,430.96 737.00,430.96
             737.00,430.96 748.00,430.96 748.00,430.96
             748.00,430.96 760.00,430.00 760.00,430.00
             760.00,430.00 792.00,430.00 792.00,430.00
             797.15,429.99 804.18,429.50 802.53,422.04
             800.78,414.17 787.34,414.01 781.00,414.00
             781.00,414.00 738.00,414.00 738.00,414.00
             738.00,414.00 717.00,415.00 717.00,415.00
             717.00,415.00 707.00,415.91 707.00,415.91
             685.27,417.41 663.41,419.52 642.00,423.80
             630.73,426.05 604.06,432.34 594.00,431.90
             586.47,431.57 575.70,429.45 569.00,426.02
             548.56,415.54 539.03,390.92 539.00,369.00
             539.00,369.00 539.00,353.00 539.00,353.00
             539.10,332.35 546.42,311.30 553.00,292.00
             569.98,242.15 584.22,184.42 565.30,133.00
             562.60,125.64 556.88,117.13 552.00,111.00
             538.48,94.05 517.48,79.27 495.00,79.00
             495.00,79.00 485.00,79.00 485.00,79.00
             479.37,79.07 474.28,80.07 469.00,82.00
             469.00,82.00 478.00,96.00 478.00,96.00
             482.50,94.70 489.38,92.90 494.00,93.10 Z
           M 482.00,100.00
           C 482.00,100.00 492.33,117.00 492.33,117.00
             492.33,117.00 498.18,123.13 498.18,123.13
             498.18,123.13 506.00,120.01 506.00,120.01
             506.00,120.01 523.00,111.00 523.00,111.00
             509.69,101.23 498.98,94.81 482.00,100.00 Z
           M 306.69,301.00
           C 310.85,309.47 303.02,318.88 294.00,317.77
             289.15,317.18 279.77,311.21 275.00,308.75
             272.72,307.57 269.63,305.48 267.00,306.29
             263.92,307.24 257.57,315.26 255.15,318.00
             255.15,318.00 237.12,340.00 237.12,340.00
             232.85,345.54 229.83,347.88 228.35,355.00
             228.20,357.26 227.02,366.79 228.35,368.40
             229.32,370.19 234.88,370.58 237.00,370.87
             237.00,370.87 263.00,374.42 263.00,374.42
             263.00,374.42 296.00,378.00 296.00,378.00
             296.00,378.00 305.00,378.00 305.00,378.00
             305.00,378.00 317.00,379.00 317.00,379.00
             317.00,379.00 354.00,379.00 354.00,379.00
             354.00,379.00 375.00,378.00 375.00,378.00
             375.00,378.00 385.00,377.09 385.00,377.09
             416.99,374.89 448.53,370.29 480.00,364.00
             480.00,364.00 504.00,358.79 504.00,358.79
             506.46,358.26 512.49,357.23 514.01,355.28
             514.94,354.07 515.68,344.31 516.00,342.00
             517.03,334.55 519.80,322.18 522.02,315.00
             522.02,315.00 531.33,288.00 531.33,288.00
             540.04,261.29 551.67,220.82 552.00,193.00
             552.07,186.59 552.18,166.24 549.49,161.27
             547.53,157.64 536.07,155.05 537.62,145.00
             537.62,145.00 540.07,138.00 540.07,138.00
             541.08,133.06 534.59,122.70 528.99,123.66
             520.27,125.16 502.29,135.78 496.00,142.00
             503.60,147.40 517.68,159.97 520.35,169.00
             522.56,176.50 514.90,185.93 507.00,184.57
             501.52,183.62 490.33,171.51 485.00,167.28
             483.02,165.71 478.55,162.04 476.00,162.16
             473.58,162.27 470.77,165.16 469.02,166.72
             466.91,168.59 465.73,169.78 464.00,172.00
             469.86,177.86 480.72,188.43 481.77,197.00
             482.72,204.72 475.83,212.02 468.00,210.64
             462.88,209.75 460.19,205.82 456.72,202.42
             451.93,197.75 446.65,193.57 441.00,190.00
             441.00,190.00 428.00,200.00 428.00,200.00
             431.63,207.72 442.07,215.59 443.38,224.00
             444.58,231.68 435.76,240.59 427.00,237.26
             423.96,236.11 415.01,227.64 412.00,224.93
             409.87,223.01 407.02,219.92 404.00,219.70
             401.27,219.51 398.14,221.93 396.00,223.42
             396.00,223.42 383.00,232.00 383.00,232.00
             387.25,240.98 401.03,248.75 399.86,259.00
             399.04,266.28 390.97,271.73 384.00,268.99
             379.96,267.41 369.84,257.57 366.00,254.17
             364.10,252.48 360.50,249.25 358.00,248.81
             354.36,248.17 341.00,256.88 337.00,259.00
             341.41,268.33 352.03,272.17 350.77,282.00
             349.71,290.30 340.44,295.70 333.02,291.15
             326.80,287.34 327.79,282.53 321.95,277.75
             320.16,276.29 316.25,273.42 314.00,273.11
             311.27,272.73 308.29,274.71 306.00,276.00
             300.02,279.38 294.54,281.64 290.00,287.00
             294.67,290.73 304.33,296.21 306.69,301.00 Z
           M 460.00,124.00
           C 460.00,124.00 461.00,125.00 461.00,125.00
             461.00,125.00 461.00,124.00 461.00,124.00
             461.00,124.00 460.00,124.00 460.00,124.00 Z
           M 443.63,141.02
           C 443.63,141.02 455.00,144.44 455.00,144.44
             462.78,147.26 471.23,151.69 478.00,156.44
             478.00,156.44 493.00,168.17 493.00,168.17
             495.14,170.08 498.26,173.56 501.00,174.30
             505.60,175.53 512.84,169.89 512.08,165.00
             511.56,161.75 507.34,157.35 504.99,155.17
             486.73,138.24 459.15,125.55 434.00,125.00
             435.47,128.06 441.34,139.36 443.63,141.02 Z
           M 455.00,161.00
           C 459.58,158.83 461.08,157.06 464.00,153.00
             464.00,153.00 448.00,147.00 448.00,147.00
             448.00,147.00 455.00,161.00 455.00,161.00 Z
           M 401.39,167.07
           C 401.39,167.07 418.00,172.20 418.00,172.20
             427.15,175.80 435.96,180.38 444.00,186.04
             444.00,186.04 457.00,196.28 457.00,196.28
             458.91,197.91 461.58,200.65 464.00,201.30
             468.60,202.53 476.17,197.04 474.58,192.00
             473.16,187.50 464.72,179.03 461.00,175.92
             441.47,159.64 419.75,155.00 395.00,155.00
             395.99,158.46 398.44,164.92 401.39,167.07 Z
           M 449.00,161.00
           C 449.00,161.00 450.00,162.00 450.00,162.00
             450.00,162.00 450.00,161.00 450.00,161.00
             450.00,161.00 449.00,161.00 449.00,161.00 Z
           M 361.63,192.01
           C 363.19,193.10 369.34,193.25 372.00,193.90
             378.58,195.50 385.34,198.67 391.00,202.34
             397.71,206.70 403.11,210.60 409.00,216.09
             411.50,218.41 417.66,224.99 420.00,226.36
             424.50,229.00 430.66,226.02 433.26,221.96
             437.98,214.57 423.89,204.15 419.00,199.85
             414.67,196.03 407.60,189.72 403.00,186.59
             393.45,180.11 374.63,173.16 363.00,174.09
             363.00,174.09 354.00,176.00 354.00,176.00
             354.96,179.39 358.95,190.13 361.63,192.01 Z
           M 404.00,174.00
           C 407.94,183.15 409.31,186.48 418.00,192.00
             418.00,192.00 429.00,184.00 429.00,184.00
             429.00,184.00 429.00,182.00 429.00,182.00
             420.90,178.76 412.86,174.43 404.00,174.00 Z
           M 400.00,179.00
           C 400.00,179.00 401.00,180.00 401.00,180.00
             401.00,180.00 401.00,179.00 401.00,179.00
             401.00,179.00 400.00,179.00 400.00,179.00 Z
           M 364.00,198.00
           C 364.00,198.00 374.00,222.00 374.00,222.00
             380.10,219.27 388.70,214.07 393.00,209.00
             382.91,203.36 376.12,198.27 364.00,198.00 Z
           M 322.39,226.40
           C 322.39,226.40 338.00,230.81 338.00,230.81
             346.65,234.10 356.80,240.64 364.00,246.46
             364.00,246.46 373.00,254.17 373.00,254.17
             378.65,259.24 382.93,263.82 389.84,256.78
             391.14,255.45 392.21,253.96 391.95,252.00
             391.48,248.45 380.06,237.93 377.00,235.17
             369.50,228.40 366.25,226.52 358.00,221.32
             340.88,210.53 334.59,207.00 314.00,207.00
             314.75,211.01 319.42,223.98 322.39,226.40 Z
           M 367.00,220.00
           C 367.00,220.00 368.00,221.00 368.00,221.00
             368.00,221.00 368.00,220.00 368.00,220.00
             368.00,220.00 367.00,220.00 367.00,220.00 Z
           M 323.00,232.00
           C 323.00,232.00 324.00,233.00 324.00,233.00
             324.00,233.00 324.00,232.00 324.00,232.00
             324.00,232.00 323.00,232.00 323.00,232.00 Z
           M 296.00,254.68
           C 296.00,254.68 314.00,266.33 314.00,266.33
             314.00,266.33 324.00,273.37 324.00,273.37
             325.99,274.87 332.29,280.23 334.00,280.76
             338.12,282.03 342.12,277.04 340.83,273.00
             339.66,269.34 332.02,261.93 329.00,259.29
             317.51,249.20 304.57,240.57 290.00,235.67
             281.97,232.97 275.24,230.50 269.00,238.00
             269.00,238.00 296.00,254.68 296.00,254.68 Z
           M 324.00,233.00
           C 324.00,233.00 330.00,248.00 330.00,248.00
             330.00,248.00 345.00,240.00 345.00,240.00
             339.38,235.55 331.10,233.16 324.00,233.00 Z
           M 275.69,255.00
           C 275.69,255.00 284.00,273.00 284.00,273.00
             284.00,273.00 301.00,264.00 301.00,264.00
             301.00,264.00 273.00,246.00 273.00,246.00
             273.00,246.00 275.69,255.00 275.69,255.00 Z
           M 323.00,246.00
           C 323.00,246.00 324.00,247.00 324.00,247.00
             324.00,247.00 324.00,246.00 324.00,246.00
             324.00,246.00 323.00,246.00 323.00,246.00 Z" />
      <path id="ShoeLaces"
        fill="#FFFFFF" stroke="black" stroke-width="1"
        d="M 461.67,79.00
           C 461.67,79.00 482.33,110.00 482.33,110.00
             484.08,112.62 491.18,122.79 491.77,125.00
             492.81,128.88 488.56,132.61 485.00,133.23
             481.22,133.89 470.91,128.37 468.09,125.79
             461.07,119.37 451.23,100.96 446.75,92.00
             445.10,88.69 440.74,80.36 440.51,77.00
             440.14,71.80 444.71,68.42 448.99,66.71
             455.44,66.31 458.52,74.29 461.67,79.00 Z
           M 485.00,79.00
           C 485.00,79.00 494.00,79.00 494.00,79.00
             512.53,79.03 530.03,88.18 543.00,101.00
             552.15,110.05 559.36,119.19 564.69,131.00
             569.94,142.64 573.98,166.14 574.00,179.00
             574.00,179.00 574.00,196.00 574.00,196.00
             573.96,219.20 566.57,248.64 560.14,271.00
             560.14,271.00 545.58,315.00 545.58,315.00
             539.73,335.50 538.76,348.93 539.00,370.00
             539.35,399.30 555.96,427.43 587.00,430.95
             589.97,431.29 593.01,431.90 596.00,431.68
             596.00,431.68 645.00,423.08 645.00,423.08
             645.00,423.08 706.00,415.91 706.00,415.91
             706.00,415.91 716.00,415.00 716.00,415.00
             716.00,415.00 735.00,414.00 735.00,414.00
             735.00,414.00 782.00,414.00 782.00,414.00
             788.64,414.01 804.90,414.43 802.67,425.00
             801.06,432.58 792.55,430.01 787.00,430.00
             787.00,430.00 762.00,430.00 762.00,430.00
             762.00,430.00 750.00,430.96 750.00,430.96
             750.00,430.96 738.00,430.96 738.00,430.96
             738.00,430.96 728.00,431.91 728.00,431.91
             700.84,433.77 673.96,436.24 647.00,440.42
             629.93,443.07 612.29,447.80 595.00,448.00
             572.04,448.26 549.07,441.18 534.92,422.00
             529.00,413.97 525.66,405.54 523.01,396.00
             520.59,387.28 518.96,372.08 519.00,363.00
             519.11,337.18 527.11,316.06 534.81,292.00
             544.41,261.96 553.78,231.62 556.09,200.00
             556.09,200.00 557.00,189.00 557.00,189.00
             557.13,160.81 552.20,142.11 535.57,119.00
             526.03,105.74 510.90,94.11 494.00,93.21
             489.17,92.95 482.75,94.93 478.00,96.00
             478.00,96.00 469.00,81.00 469.00,81.00
             469.00,81.00 485.00,79.00 485.00,79.00 Z
           M 433.00,155.34
           C 429.75,154.30 424.75,153.39 422.17,151.44
             422.17,151.44 401.58,126.00 401.58,126.00
             399.55,123.39 393.38,115.76 392.64,113.00
             390.78,106.06 402.48,99.27 405.96,98.78
             410.81,98.10 415.92,108.38 418.33,112.00
             418.33,112.00 437.69,142.00 437.69,142.00
             441.43,147.81 446.57,154.64 449.00,161.00
             449.00,161.00 433.00,155.34 433.00,155.34 Z
           M 502.00,152.29
           C 504.83,154.75 511.13,160.51 512.21,164.00
             514.10,170.14 505.25,175.42 501.00,174.30
             498.59,173.66 494.98,170.26 493.00,168.58
             493.00,168.58 479.00,157.43 479.00,157.43
             471.72,152.23 465.37,148.59 457.00,145.42
             454.14,144.35 444.31,141.80 442.79,140.43
             440.42,138.30 435.42,128.28 434.00,125.00
             457.91,125.52 484.11,136.73 502.00,152.29 Z
           M 383.00,171.75
           C 380.02,170.79 373.68,169.89 371.63,168.18
             369.55,166.43 366.14,158.78 364.75,156.00
             363.05,152.60 356.64,141.06 356.82,138.00
             356.95,135.66 358.48,133.76 360.11,132.21
             361.71,130.69 363.87,129.28 366.00,128.65
             372.73,126.67 376.35,133.13 379.39,138.00
             384.39,146.02 398.66,171.79 401.00,180.00
             394.22,176.74 390.61,174.18 383.00,171.75 Z
           M 355.00,213.31
           C 350.93,211.07 342.65,207.32 340.08,203.67
             340.08,203.67 329.68,177.00 329.68,177.00
             326.31,167.87 318.92,157.18 331.00,151.65
             332.89,150.78 334.98,150.41 337.00,150.00
             337.00,150.00 357.28,196.00 357.28,196.00
             357.28,196.00 367.00,220.00 367.00,220.00
             361.85,218.03 359.65,215.87 355.00,213.31 Z
           M 404.00,155.00
           C 423.90,155.03 445.66,163.03 461.00,175.62
             465.50,179.31 479.14,191.33 473.55,197.61
             469.54,202.12 464.67,202.50 460.00,199.02
             447.29,189.57 442.32,183.72 427.00,176.26
             422.27,173.95 416.08,171.51 411.00,170.15
             408.22,169.41 403.56,168.81 401.39,167.15
             398.45,164.90 396.00,158.52 395.00,155.00
             395.00,155.00 404.00,155.00 404.00,155.00 Z
           M 386.00,178.34
           C 391.06,180.10 397.54,182.66 402.00,185.55
             402.00,185.55 419.00,199.43 419.00,199.43
             424.08,203.78 437.80,214.47 433.68,221.90
             431.35,226.11 424.33,228.90 420.00,226.36
             417.82,225.08 413.17,220.11 411.00,218.09
             406.42,213.82 398.25,207.26 393.00,203.86
             386.89,199.91 380.02,196.41 373.00,194.43
             369.81,193.53 362.51,193.10 360.70,191.40
             358.50,189.34 354.86,179.20 354.00,176.00
             367.17,172.19 373.45,173.99 386.00,178.34 Z
           M 306.69,205.00
           C 306.69,205.00 324.00,247.00 324.00,247.00
             324.00,247.00 308.00,238.26 308.00,238.26
             304.91,236.66 298.81,234.10 296.70,231.61
             294.83,229.42 293.30,223.90 292.33,221.00
             292.33,221.00 284.86,197.00 284.86,197.00
             284.00,194.02 281.40,187.76 282.35,185.02
             283.99,180.23 292.65,177.05 297.00,175.00
             297.00,175.00 306.69,205.00 306.69,205.00 Z
           M 265.00,267.42
           C 260.15,263.29 252.18,256.95 248.63,252.00
             244.56,246.31 241.54,237.65 239.33,231.00
             236.18,221.50 231.57,212.77 243.00,207.00
             244.31,206.34 246.43,205.51 247.89,205.46
             249.17,205.42 249.99,205.61 250.86,206.59
             250.86,206.59 256.68,222.00 256.68,222.00
             256.68,222.00 271.86,258.00 271.86,258.00
             274.80,264.59 278.32,269.86 280.00,277.00
             280.00,277.00 279.00,278.00 279.00,278.00
             273.67,275.53 269.45,271.21 265.00,267.42 Z
           M 332.00,208.48
           C 352.33,213.68 381.99,236.22 394.00,253.00
             391.08,256.23 385.90,261.60 381.00,260.30
             377.80,259.45 369.90,251.78 367.00,249.28
             359.37,242.73 352.06,237.66 343.00,233.26
             338.86,231.25 334.51,229.63 330.00,228.67
             327.43,228.12 323.69,228.23 321.81,226.40
             319.90,224.54 314.35,210.37 313.00,207.00
             320.42,207.00 324.62,206.59 332.00,208.48 Z
           M 265.00,297.66
           C 245.59,284.98 232.32,273.39 216.00,257.00
             213.13,254.12 200.16,239.96 199.16,237.00
             197.08,230.79 210.02,225.70 213.96,226.77
             216.81,227.54 219.95,231.82 222.04,234.00
             222.04,234.00 238.00,249.58 238.00,249.58
             238.00,249.58 262.00,270.25 262.00,270.25
             262.00,270.25 300.00,300.00 300.00,300.00
             295.13,319.66 274.58,303.91 265.00,297.66 Z
           M 292.00,236.20
           C 309.15,242.88 327.11,254.31 338.52,269.00
             344.96,277.29 337.74,281.18 335.00,280.99
             332.30,280.79 327.26,276.18 325.00,274.42
             325.00,274.42 315.00,267.33 315.00,267.33
             315.00,267.33 297.00,255.58 297.00,255.58
             297.00,255.58 269.00,239.00 269.00,239.00
             273.70,229.64 284.17,233.16 292.00,236.20 Z" />
</svg>
