<?xml version="1.0" encoding="UTF-8" standalone="no"?>
<!DOCTYPE svg PUBLIC "-//W3C//DTD SVG 20010904//EN"
              "http://www.w3.org/TR/2001/REC-SVG-20010904/DTD/svg10.dtd">

<svg xmlns="http://www.w3.org/2000/svg"
     width="2.36667in" height="1.92222in"
     viewBox="0 0 213 173">
  <path id="topStroke"
        fill="#000000" stroke="black" stroke-width="1"
        d="M 22.02,72.69
           C 17.81,71.63 15.85,67.48 13.85,64.00
             13.85,64.00 1.82,43.00 1.82,43.00
             0.29,39.75 -0.81,35.47 1.02,32.09
             2.88,28.67 8.63,25.94 12.00,24.00
             12.00,24.00 38.00,9.00 38.00,9.00
             41.39,7.05 50.85,1.35 54.00,0.25
             54.00,0.25 81.00,0.25 81.00,0.25
             91.61,0.02 87.16,1.49 95.00,3.83
             99.63,5.21 104.23,5.05 109.00,5.00
             120.89,4.86 121.82,1.25 126.17,0.14
             126.17,0.14 152.00,0.14 152.00,0.14
             154.64,0.00 157.46,-0.13 160.00,0.70
             160.00,0.70 190.00,17.58 190.00,17.58
             194.54,20.18 208.87,27.67 211.59,31.18
             213.63,34.27 213.21,38.68 211.59,42.00
             211.59,42.00 199.20,64.00 199.20,64.00
             197.12,67.46 195.22,71.62 190.98,72.69
             183.68,74.52 168.86,63.63 162.00,60.00
             162.00,60.00 162.00,146.00 162.00,146.00
             162.00,151.33 163.41,167.84 159.57,171.11
             157.01,173.28 153.15,172.99 150.00,173.00
             150.00,173.00 63.00,173.00 63.00,173.00
             51.48,172.98 50.02,170.27 50.00,159.00
             50.00,159.00 50.00,60.00 50.00,60.00
             44.25,64.13 28.98,74.43 22.02,72.69 Z
           M 177.00,63.01
           C 179.40,64.42 184.52,67.75 186.98,68.30
             191.25,69.24 192.57,66.13 194.42,63.00
             194.42,63.00 208.30,38.02 208.30,38.02
             209.52,32.46 200.03,28.77 196.00,26.42
             196.00,26.42 172.00,12.58 172.00,12.58
             162.71,7.25 159.99,4.02 149.00,4.00
             149.00,4.00 134.00,4.00 134.00,4.00
             126.03,4.14 126.52,6.27 120.00,8.22
             115.62,9.52 109.57,10.09 105.00,9.99
             91.39,9.68 88.89,5.41 83.00,4.30
             83.00,4.30 64.00,4.30 64.00,4.30
             61.34,4.00 58.58,3.89 56.00,4.30
             56.00,4.30 26.00,21.28 26.00,21.28
             26.00,21.28 12.00,29.40 12.00,29.40
             10.08,30.54 6.29,32.47 5.22,34.39
             3.59,37.30 5.75,40.47 7.15,43.00
             7.15,43.00 18.15,62.00 18.15,62.00
             19.71,64.65 21.48,68.20 25.02,68.30
             27.51,68.36 31.77,65.54 34.00,64.28
             34.00,64.28 55.00,52.00 55.00,52.00
             55.00,52.00 55.00,141.00 55.00,141.00
             55.00,141.00 55.00,161.00 55.00,161.00
             55.00,161.00 56.60,166.98 56.60,166.98
             56.60,166.98 64.00,168.00 64.00,168.00
             64.00,168.00 135.00,168.00 135.00,168.00
             135.00,168.00 151.00,168.00 151.00,168.00
             151.00,168.00 156.98,166.40 156.98,166.40
             156.98,166.40 158.00,159.00 158.00,159.00
             158.00,159.00 158.00,52.00 158.00,52.00
             158.00,52.00 177.00,63.01 177.00,63.01 Z" />
    <path id="insideTop" fill="none" stroke="black" stroke-width="1"
        d="M 34.00,63.28
           C 31.54,64.68 26.95,67.86 24.10,67.19
             21.26,66.52 19.36,62.36 18.00,60.00
             18.00,60.00 7.46,42.00 7.46,42.00
             5.95,38.93 4.49,36.54 7.46,33.61
             7.46,33.61 27.00,21.72 27.00,21.72
             27.00,21.72 56.00,5.64 56.00,5.64
             59.61,4.60 72.47,4.99 77.00,5.00
             88.66,5.02 93.23,11.53 108.00,10.96
             121.01,10.45 124.94,6.25 130.00,5.14
             130.00,5.14 151.00,5.14 151.00,5.14
             159.10,5.11 162.18,7.96 169.00,11.85
             169.00,11.85 194.00,26.28 194.00,26.28
             196.65,27.79 206.47,32.87 207.32,35.39
             208.44,38.70 202.61,46.93 200.85,50.00
             198.88,53.43 192.79,65.47 189.79,66.87
             186.70,68.32 182.60,65.34 180.00,63.80
             180.00,63.80 157.00,51.00 157.00,51.00
             157.00,51.00 157.00,140.00 157.00,140.00
             157.00,140.00 157.00,160.00 157.00,160.00
             157.00,160.00 155.43,166.83 155.43,166.83
             155.43,166.83 147.00,168.00 147.00,168.00
             147.00,168.00 78.00,168.00 78.00,168.00
             78.00,168.00 65.00,168.00 65.00,168.00
             65.00,168.00 56.99,166.26 56.99,166.26
             56.99,166.26 56.00,159.00 56.00,159.00
             56.00,159.00 56.00,51.00 56.00,51.00
             56.00,51.00 34.00,63.28 34.00,63.28 Z" />
</svg>
